<svg id="Layer_1" data-name="Layer 1" xmlns="http://www.w3.org/2000/svg" xmlns:xlink="http://www.w3.org/1999/xlink" viewBox="0 0 1137.69 864.38"><defs><style>.cls-1,.cls-23{fill:#109a8f;}.cls-1{opacity:0.1;}.cls-1,.cls-16,.cls-17,.cls-24{isolation:isolate;}.cls-2{fill:#1f161e;}.cls-3{fill:#86d1d5;}.cls-4{fill:#57b79c;}.cls-5{fill:#f8cdbb;}.cls-10,.cls-18,.cls-19,.cls-20,.cls-21,.cls-27,.cls-28,.cls-6,.cls-8,.cls-9{fill:none;}.cls-10,.cls-6,.cls-8,.cls-9{stroke:#1f161e;stroke-linecap:round;}.cls-10,.cls-6{stroke-linejoin:round;}.cls-6{stroke-width:1.33px;}.cls-7{fill:#f69ea0;}.cls-18,.cls-19,.cls-20,.cls-21,.cls-27,.cls-28,.cls-8,.cls-9{stroke-miterlimit:10;}.cls-8{stroke-width:0.92px;}.cls-9{stroke-width:1.22px;}.cls-10{stroke-width:1.02px;}.cls-11{fill:#b47462;}.cls-12{fill:url(#linear-gradient);}.cls-13{fill:#fff;}.cls-14{fill:#f5f6f6;}.cls-15{fill:#e0e1e0;}.cls-16{fill:#85cba1;}.cls-16,.cls-17{opacity:0.4;}.cls-17{fill:#f6eb16;}.cls-18,.cls-19,.cls-20,.cls-21{stroke:#109a8f;}.cls-19{stroke-dasharray:12.71 12.71;}.cls-20{stroke-dasharray:11.33 11.33;}.cls-21{stroke-dasharray:12;}.cls-22{fill:url(#linear-gradient-2);}.cls-24{fill:#010101;opacity:0.2;}.cls-25{opacity:0.8;}.cls-26{fill:#454154;}.cls-27,.cls-28{stroke:#454154;}.cls-27{stroke-width:0.72px;}.cls-28{stroke-width:0.54px;}</style><linearGradient id="linear-gradient" x1="903.64" y1="588.95" x2="903.64" y2="1112.95" gradientTransform="matrix(1, 0, 0, -1, -295.78, 1112.95)" gradientUnits="userSpaceOnUse"><stop offset="0" stop-color="#818181" stop-opacity="0.25"/><stop offset="0.54" stop-color="#818181" stop-opacity="0.12"/><stop offset="1" stop-color="#818181" stop-opacity="0.1"/></linearGradient><linearGradient id="linear-gradient-2" x1="966.14" y1="771.95" x2="966.14" y2="851.95" xlink:href="#linear-gradient"/></defs><path class="cls-1" d="M308.08,652.36c18,70.15,56.11,130.79,116.34,160.18,125.22,61.09,407.45,29.58,618.12-6.58,109-18.71,204.74-70.3,274.33-143Z" transform="translate(-295.78 -185.05)"/><path class="cls-1" d="M1412.85,322.17H1297.26c-5.5,0-10-4.1-10-9.11s4.49-9.11,10-9.11h20c-5.5,0-10-4.1-10-9.11s4.49-9.1,10-9.1H1303c-5.5,0-10-4.1-10-9.11s4.49-9.11,10-9.11h60.33c-13.4-5.68-29-9.71-47.07-11.82-164.51-19.27-223.25-6.53-244,6.58a242,242,0,0,1-84.55,33.79c-101.49,19.09-291.31,42.06-463.36-7.36-85.51-24.55-149.06,17-187.16,86.31H1432.92c-1.43-20.16-5.71-38.78-13.57-55.07A10.5,10.5,0,0,1,1412.85,322.17Z" transform="translate(-295.78 -185.05)"/><path class="cls-1" d="M298.27,505.94a423.51,423.51,0,0,0,4.49,122.39l1014.88,33.84a433.29,433.29,0,0,0,70.51-98Zm401.37,87.31h-20c5.49,0,10,4.1,10,9.11s-4.5,9.1-10,9.1H564.1c-5.49,0-10-4.09-10-9.1s4.5-9.11,10-9.11h20c-5.49,0-10-4.1-10-9.11s4.5-9.11,10-9.11H569.81c-5.49,0-10-4.09-10-9.1s4.5-9.11,10-9.11H685.4c5.5,0,10,4.1,10,9.11s-4.49,9.1-10,9.1h14.24c5.5,0,10,4.1,10,9.11S705.17,593.25,699.64,593.25Z" transform="translate(-295.78 -185.05)"/><path class="cls-1" d="M1433,375.65,325,400.22c-13.5,31.59-22.43,67.3-26.55,104.32H1413.55a399.74,399.74,0,0,0,16.1-66.49C1433,416.29,1434.3,395.25,1433,375.65ZM523.39,456.16h-20c5.49,0,10,4.1,10,9.11s-4.5,9.11-10,9.11H387.81c-5.49,0-10-4.1-10-9.11s4.5-9.11,10-9.11h20c-5.49,0-10-4.09-10-9.1s4.5-9.11,10-9.11H393.52c-5.49,0-10-4.1-10-9.11s4.5-9.11,10-9.11H509.11c5.5,0,10,4.1,10,9.11s-4.49,9.11-10,9.11h14.28c5.49,0,10,4.1,10,9.11S528.88,456.16,523.39,456.16Z" transform="translate(-295.78 -185.05)"/><ellipse class="cls-1" cx="968.34" cy="794.9" rx="135.72" ry="11.14"/><ellipse class="cls-1" cx="294.23" cy="847.49" rx="135.72" ry="16.89"/><ellipse class="cls-1" cx="192.61" cy="776.86" rx="26.93" ry="4.55"/><ellipse class="cls-1" cx="86.52" cy="841.39" rx="26.93" ry="4.55"/><g id="Layer_2" data-name="Layer 2"><g id="vector"><path class="cls-2" d="M471.6,708.63c.21,7,2.39,99.86,10.12,125.31C470,850.63,384.85,967.66,384.6,970.26S398.78,987,401.36,987,534.54,874.39,541.2,867s9.73-38,9.73-38" transform="translate(-295.78 -185.05)"/><path class="cls-3" d="M467.88,679.42c0,87,105,172.08,125.67,184.24,4.14,9.13,71.09,155.77,72.67,159.79,5.42.67,14-2,18.17-7.77-1.29-5.74-32.83-173.63-37-183.77s-56.73-114.66-71.73-134.85" transform="translate(-295.78 -185.05)"/><path class="cls-2" d="M388,973.29c-1.29,1.37-9.69,9.39-9.89,12-.35,4.74,17.46,21.4,19,21.41s3.69-1.23,3.47-2.47-5.52-9.76-5.78-11.38,1.82-6.47,4.09-7.86" transform="translate(-295.78 -185.05)"/><path class="cls-2" d="M667,1021.73c.7,1.87,4.33,13.13,6.52,14.35,4,2.21,25.43-8.6,26.06-10.13s.39-4.1-.78-4.34-10.64,1.53-12.15,1.16-4.89-4.32-5.16-7.08" transform="translate(-295.78 -185.05)"/><path class="cls-4" d="M541.53,502.71c26.26,0,37.14,45,37.14,58.38,0,21.22-11.45,105.06-3,136-10.47,1.81-94.57-5.66-107.81-17.64C467.88,594.63,516.55,502.71,541.53,502.71Z" transform="translate(-295.78 -185.05)"/><path class="cls-5" d="M574.37,607.17c-15.72,9.65-43.52,13-54,10.74,25.79,58.94,103.61,79.82,126.44,86.17,3.71-6.12,8.88-18,9.3-27C646.46,672.28,591,650,574.37,607.17Z" transform="translate(-295.78 -185.05)"/><path class="cls-5" d="M566.5,520.33c5-1.48,124.49-26.47,127.19-27.18,1.79,3.81,6.06,18.57,6.06,24.05-5.16,3.08-121.08,43.89-121.08,43.89" transform="translate(-295.78 -185.05)"/><path class="cls-6" d="M574.37,607.17a67.83,67.83,0,0,1-4.62-21.57" transform="translate(-295.78 -185.05)"/><path class="cls-6" d="M539.9,529.25c-19.43,0-27.91,34.4-27.91,47.55a101.56,101.56,0,0,0,8.35,41.06" transform="translate(-295.78 -185.05)"/><path class="cls-4" d="M578.67,561.09l20.94-7.45c-2.69-20.42-10.48-34.31-13.07-37.8-11.12,2.38-18.84,4.1-20,4.43" transform="translate(-295.78 -185.05)"/><ellipse class="cls-5" cx="365.49" cy="508.18" rx="19.22" ry="16.68"/><path class="cls-2" d="M576.71,546.93a105.07,105.07,0,0,1,2,14.16c2.39-.88,13.73-4.84,13.73-4.84S581.37,555.33,576.71,546.93Z" transform="translate(-295.78 -185.05)"/><path class="cls-2" d="M556.35,662.62c1.45,5.47,11,34.16-9.64,33.4,8.91.68,23.83,2,29,1-.36-1.37-2.87-16.62-2.91-23.08C570.34,672.52,556.35,662.62,556.35,662.62Z" transform="translate(-295.78 -185.05)"/><path class="cls-5" d="M556.08,514.33c-1.84,3.25-18.9-7.27-16.91-10.77l12.35-21.86,16.93,10.76Z" transform="translate(-295.78 -185.05)"/><path class="cls-2" d="M544.1,494.77c1.1-1.94,11.34-6.72,13.93-3.54-3.13-4-4.49-9.56-6.55-9.47Z" transform="translate(-295.78 -185.05)"/><ellipse class="cls-5" cx="278.2" cy="284.9" rx="25.63" ry="27.16"/><ellipse class="cls-7" cx="597.62" cy="478.57" rx="2.36" ry="4.28" transform="translate(-242.06 832.36) rotate(-83.42)"/><ellipse class="cls-7" cx="570.88" cy="475.64" rx="2.36" ry="4.28" transform="translate(-262.83 803.19) rotate(-83.42)"/><path class="cls-8" d="M587.71,472.56c.68,1.36,4.27,6.83-.24,8.36" transform="translate(-295.78 -185.05)"/><path class="cls-8" d="M578.32,485.88c-1.28-.18-3.09-2-4-3.68" transform="translate(-295.78 -185.05)"/><ellipse class="cls-5" cx="257.48" cy="281.53" rx="5.65" ry="5.98"/><path class="cls-2" d="M557.06,471.86c0,7.95-8.3,13.21-11.1,13.21a3.12,3.12,0,0,1-3.48-2.81,3,3,0,0,1,0-.6c0-3.34,1.86-6.19,5.75-9.8-.68-1.24-5.75-7.79-5.75-17,0-9.77,5.66-18,9.46-18a7.52,7.52,0,0,1,6.75,6.3c0-13.65,13.77-23.43,21.92-23.43,7.65,0,9,3.54,9,6.39,0,6.29-4.67,13-6.45,14.67,4.28-3.35,11-6.71,16.76-6.71,3.64,0,8.28,1.09,8.28,6.39,0,9.74-8.6,15.37-11.48,16.95a28,28,0,0,0-4.17-6.26c.53,1.84-1.6,5.19-5.66,5.94C584.64,457.54,557.06,453.6,557.06,471.86Z" transform="translate(-295.78 -185.05)"/><g id="Layer_2-2" data-name="Layer 2"><g id="vector-2" data-name="vector"><polygon class="cls-2" points="796.7 537.93 782.34 542.83 793.33 573.19 807.69 568.29 796.7 537.93"/><path class="cls-2" d="M1068.61,921.63c-.61,1.35-3.84,9.47-5.64,10.3-3.24,1.49-20-7.06-20.51-8.19s-.19-3,.75-3.16,8.46,1.44,9.67,1.21,4-3,4.36-5" transform="translate(-295.78 -185.05)"/><path class="cls-2" d="M1279.14,798.68c0,54-17.7,65.34-35.31,65.34-44.62,0-102.66-34.72-105.94-36.06,1,5.68,7.53,149.66,7.53,150.49-1.54,1.17-13.4,2.18-17.39,1.17-1-3.5-32.37-174.75-32.37-179.26s2.7-11.37,12.92-12.36c4.32-.42,64.39-2.84,64.39-2.84" transform="translate(-295.78 -185.05)"/><path class="cls-4" d="M1127.72,760.39c-13.54,19-74,151.63-73.43,154.73s14.43,9.67,17.37,7.9c12.46-7.45,89-132.63,91.94-134.52s7.44-1.16,10.1-.64C1180.62,776.71,1165.14,763.47,1127.72,760.39Z" transform="translate(-295.78 -185.05)"/><path class="cls-3" d="M1188.3,654c-20.18,0-26,18.54-27.66,25.54-5.33,22.35,9.53,107.28,11.25,109.62,14.6,19.81,98.08,21.57,106.22,13S1243.43,654,1188.3,654Z" transform="translate(-295.78 -185.05)"/><path class="cls-2" d="M1141.52,976.39c.26,1.45,2.28,9.94,1.27,11.6-1.81,3-20.68,5.07-21.71,4.38s-1.89-2.38-1.21-3,7.84-3.4,8.71-4.26,1.61-4.68.71-6.52" transform="translate(-295.78 -185.05)"/><path class="cls-5" d="M1191.32,657.86c.54,1.7-13.7,6-14.25,4.31l-5.52-17.2,14.23-4.31Z" transform="translate(-295.78 -185.05)"/><path class="cls-2" d="M1177.2,649c1.39-.42,11.5.71,12.18,2.83l-3.6-11.21C1183.56,641.33,1177.2,649,1177.2,649Z" transform="translate(-295.78 -185.05)"/><ellipse class="cls-5" cx="873.47" cy="446.45" rx="20.91" ry="20.29"/><ellipse class="cls-7" cx="1151.89" cy="641.13" rx="3.66" ry="1.85" transform="translate(-430.46 168.61) rotate(-16.5)"/><ellipse class="cls-7" cx="1173.88" cy="634.48" rx="3.66" ry="1.85" transform="translate(-427.67 174.59) rotate(-16.5)"/><path class="cls-9" d="M1159.24,634.9c-.36,1.1-2.5,5.92,1.53,6.39" transform="translate(-295.78 -185.05)"/><path class="cls-9" d="M1169.26,643.59c1-.35,2.27-2.07,2.75-3.48" transform="translate(-295.78 -185.05)"/><path class="cls-2" d="M1162.92,604.89c5.52-.67,21.52-5.29,25.16-8.5,1.72.88,8.41,6.71,13.86,14.6l-7.74,7.55,9.78-4.38a38.07,38.07,0,0,1,5.23,13.35c-2.53,6.61-10.45,9.33-12,9.51-9.63,1.18-13.33-13.35-18.19-15.15-8.24-3.07-18,4.9-30.17,4.4C1146.19,620.9,1149.72,606.5,1162.92,604.89Z" transform="translate(-295.78 -185.05)"/><ellipse class="cls-5" cx="892.64" cy="443.09" rx="4.83" ry="4.69"/><path class="cls-3" d="M1209.21,701.51c1,6.26,4.37,65.37-3.63,71.12-17.13,12.31-96.23-2.75-108.22-7.06-1.29-4.12,0-17.21,0-17.21,4.62-.18,62.87-.72,66.34-5s3.89-39.27,3.33-43.22" transform="translate(-295.78 -185.05)"/><ellipse class="cls-5" cx="793.52" cy="571.01" rx="11.2" ry="10.87"/><path class="cls-10" d="M1163.72,743.39c3.51-4.31,3.88-39.27,3.32-43.22" transform="translate(-295.78 -185.05)"/><path class="cls-10" d="M1169.19,777.07c16.14.87,30.25,0,36.39-4.44,3.5-2.51,4.83-15.24,5.15-29.29" transform="translate(-295.78 -185.05)"/></g></g><rect class="cls-11" x="871.65" y="678.82" width="149.44" height="120.57"/><ellipse class="cls-5" cx="404.11" cy="319.89" rx="19.22" ry="16.68"/><rect class="cls-12" x="413.85" width="388" height="524"/><rect class="cls-13" x="436.85" y="8" width="358" height="506"/><rect class="cls-14" x="419.85" y="8" width="17" height="506"/><rect class="cls-15" x="495.85" y="383" width="240" height="6"/><rect class="cls-16" x="495.85" y="406" width="240" height="6"/><rect class="cls-17" x="495.85" y="429" width="240" height="6"/><rect class="cls-15" x="495.85" y="452" width="240" height="6"/><rect class="cls-15" x="495.85" y="475" width="240" height="6"/><line class="cls-18" x1="575.1" y1="22" x2="569.1" y2="22"/><line class="cls-19" x1="556.39" y1="22" x2="486.46" y2="22"/><polyline class="cls-18" points="480.1 22 474.1 22 474.1 28"/><line class="cls-20" x1="474.1" y1="39.33" x2="474.1" y2="124.33"/><line class="cls-18" x1="474.1" y1="130" x2="474.1" y2="136"/><polyline class="cls-21" points="621.6 222.5 757.6 222.5 757.6 103.5"/><rect class="cls-22" x="516.85" y="261" width="307" height="80"/><rect class="cls-23" x="519.85" y="266" width="300" height="71"/><rect class="cls-23" x="599.85" y="283" width="88" height="4"/><rect class="cls-24" x="599.85" y="292" width="88" height="4"/><rect class="cls-13" x="599.85" y="307" width="172" height="4"/><circle class="cls-23" cx="553.85" cy="301" r="19"/><circle class="cls-24" cx="553.85" cy="301" r="19"/><g class="cls-25"><path class="cls-23" d="M986.85,362.87s-8.16-3.31-34.08,8.58S923.6,381.83,916.89,380s-10.46-2.24-17.65-12.17c0,0-5.06-27.51-10-31.8s-25.78,2.44-25.78,2.44-25,5.75-29.82-27.7c0,0,3.39-25.2-1.22-32.94,0,0,9.3,4,24.65-2.47s27.63,7,27.63,7,3.88,10,3.47,16,2.05,8.22,9.39,5.33c0,0,3.62-5.12-1.49-13.57s-8.73-14.76-7.31-21.33,5.51-15.66,18.64-20.23,31-5.42,39.53-9,10.63-5.88,10.63-5.88-5.27,5.28,7.15,27.65,4.5,32.09,4.5,32.09-6.6,15.74-35.75,14.45c0,0-28.09,1-12.78,12.94,0,0,9.81-2,24.48-6.66s25.24,14.58,27.87,28S986.85,362.87,986.85,362.87Z" transform="translate(-295.78 -185.05)"/><path class="cls-26" d="M949.1,250.65l.15,0c1.13,4.27-11.43,21.43-22.16,35.07l-.12-.1C942.1,266.34,950,253.93,949.1,250.65Z" transform="translate(-295.78 -185.05)"/><path class="cls-26" d="M927.19,285.3l.06.18c-8.57,10.89-19.35,23.9-28,33.53-.82.92-1.64,1.88-2.42,2.89l-.25-.19c.79-1,1.61-2,2.43-2.89C907.66,309.17,918.62,296.19,927.19,285.3Z" transform="translate(-295.78 -185.05)"/><path class="cls-26" d="M896.81,321.42l.17.29c-15.7,19.6-16.74,50-16.78,50.3l-3.31-3.78C876.93,367.92,881,341.15,896.81,321.42Z" transform="translate(-295.78 -185.05)"/><path class="cls-27" d="M968.64,352.24s-18.51-9.63-32.94-6.17-46.91-12.22-46.91-12.22-13.8-5.6-16.57-12c0,0-9.46-10-10-15.18s-9.78-18.2-15.76-18.67" transform="translate(-295.78 -185.05)"/><path class="cls-27" d="M966,361.5s-9.32-6.28-8.24-13.61" transform="translate(-295.78 -185.05)"/><path class="cls-27" d="M951.66,369.62s-13.34-4.85-14.67-23.85" transform="translate(-295.78 -185.05)"/><path class="cls-27" d="M930.14,374.53a29.85,29.85,0,0,1-8.51-29" transform="translate(-295.78 -185.05)"/><path class="cls-27" d="M904.28,369.36s-8.48-17.8-.93-29.37" transform="translate(-295.78 -185.05)"/><path class="cls-27" d="M968.86,340.5s-9.65,3.07-7.57,8.14" transform="translate(-295.78 -185.05)"/><path class="cls-27" d="M957.22,323s-12.91,4.09-13.21,22.35" transform="translate(-295.78 -185.05)"/><path class="cls-27" d="M939.23,318.79s-11.75,14.49-10.92,27.67" transform="translate(-295.78 -185.05)"/><path class="cls-27" d="M918.66,324.47S907,335.62,908.48,341.82" transform="translate(-295.78 -185.05)"/><path class="cls-27" d="M911.62,320.54s-10.94,1.95-12.46-1.64" transform="translate(-295.78 -185.05)"/><path class="cls-27" d="M897.41,307.33s5.53,7.32,7,5.68" transform="translate(-295.78 -185.05)"/><path class="cls-27" d="M952.2,302.7s-27.58,2-33.81-6.31" transform="translate(-295.78 -185.05)"/><path class="cls-27" d="M891.61,270.45s12.94,27.77,22.33,31.31" transform="translate(-295.78 -185.05)"/><path class="cls-27" d="M905.19,257.21s7.95,25.55,17.79,33.53" transform="translate(-295.78 -185.05)"/><path class="cls-28" d="M963.8,281.62s-20.95,9-33.56-.11" transform="translate(-295.78 -185.05)"/><path class="cls-28" d="M923.86,251.77s4.79,18.78,11.25,23.31" transform="translate(-295.78 -185.05)"/><path class="cls-28" d="M960.64,260.56s-11.79,4.46-16.19,1" transform="translate(-295.78 -185.05)"/><path class="cls-27" d="M887.31,313.46s0,16.37-4.45,17.53" transform="translate(-295.78 -185.05)"/><path class="cls-27" d="M850.88,334.67s17.7,1.52,25.86-7.62" transform="translate(-295.78 -185.05)"/><path class="cls-27" d="M882.75,294.13s-4.28,16.61-16.1,21.07" transform="translate(-295.78 -185.05)"/><path class="cls-27" d="M840.27,317.18s12.53,4.34,23.3-6.73" transform="translate(-295.78 -185.05)"/><path class="cls-27" d="M868.82,279.85s-1.18,14.1-8.85,20.7" transform="translate(-295.78 -185.05)"/><path class="cls-27" d="M840.74,295.7s10.4.07,12.84-3.32" transform="translate(-295.78 -185.05)"/></g></g></g><ellipse class="cls-1" cx="603.1" cy="737.02" rx="54.18" ry="9.15"/></svg>